<svg xmlns="http://www.w3.org/2000/svg" xmlns:xlink="http://www.w3.org/1999/xlink" width="235" zoomAndPan="magnify" viewBox="0 0 176.25 86.999996" height="116" preserveAspectRatio="xMidYMid meet" version="1.0"><defs><filter x="0%" y="0%" width="100%" height="100%" id="29fd3e3d9f"><feColorMatrix values="0 0 0 0 1 0 0 0 0 1 0 0 0 0 1 0 0 0 1 0" color-interpolation-filters="sRGB"/></filter><clipPath id="a316c490fd"><path d="M 0 7 L 175.503906 7 L 175.503906 86.816406 L 0 86.816406 Z M 0 7 " clip-rule="nonzero"/></clipPath><mask id="ca3c3d301c"><g filter="url(#29fd3e3d9f)"><rect x="-17.625" width="211.5" fill="#000000" y="-8.7" height="104.399995" fill-opacity="0.2"/></g></mask><clipPath id="6cf65907e4"><path d="M 16 0.136719 L 175.414062 0.136719 L 175.414062 79.21875 L 16 79.21875 Z M 16 0.136719 " clip-rule="nonzero"/></clipPath><clipPath id="3cfa1e8da9"><path d="M 0 7 L 175.414062 7 L 175.414062 79.21875 L 0 79.21875 Z M 0 7 " clip-rule="nonzero"/></clipPath><clipPath id="db686d0988"><rect x="0" width="176" y="0" height="80"/></clipPath></defs><g clip-path="url(#a316c490fd)"><g mask="url(#ca3c3d301c)"><g transform="matrix(1, 0, 0, 1, 0, 7)"><g clip-path="url(#db686d0988)"><g clip-path="url(#6cf65907e4)"><path fill="#33b888" d="M 17.359375 56.777344 C 19.214844 48.625 24.117188 41.429688 30.453125 35.902344 C 30.90625 35.5 31.375 35.109375 31.847656 34.726562 C 32.324219 34.339844 32.808594 33.960938 33.304688 33.59375 C 33.945312 33.113281 34.597656 32.644531 35.261719 32.199219 C 42.964844 26.992188 52.394531 23.792969 61.589844 25.164062 C 70.921875 26.558594 78.886719 32.351562 86.914062 37.3125 C 93.921875 41.648438 101.898438 45.566406 109.980469 45.273438 C 110.335938 45.261719 110.691406 45.242188 111.050781 45.210938 C 111.410156 45.179688 111.777344 45.140625 112.136719 45.09375 C 112.585938 45.035156 113.035156 44.960938 113.484375 44.875 C 120.140625 43.574219 125.808594 39.175781 130.335938 34.121094 C 134.855469 29.066406 138.476562 23.273438 142.792969 18.042969 C 145.265625 15.042969 147.996094 12.214844 150.988281 9.734375 C 151.378906 9.410156 151.777344 9.089844 152.179688 8.773438 C 152.570312 8.46875 152.964844 8.175781 153.363281 7.878906 C 155.644531 6.207031 158.074219 4.746094 160.648438 3.550781 C 165.238281 1.429688 170.339844 0.242188 175.375 0.335938 L 175.375 79.113281 L 19.4375 79.113281 C 16.636719 71.984375 15.664062 64.214844 17.359375 56.777344 Z M 17.359375 56.777344 " fill-opacity="1" fill-rule="nonzero"/></g><g clip-path="url(#3cfa1e8da9)"><path fill="#eacab3" d="M 0 73.515625 C 0.0625 59.285156 8.734375 46.726562 20.445312 39.210938 C 24.367188 36.699219 28.738281 34.695312 33.304688 33.59375 C 36.460938 32.832031 39.710938 32.5 42.96875 32.722656 C 50.347656 33.234375 56.984375 36.71875 63.128906 40.59375 C 69.609375 44.679688 75.859375 49.339844 83.175781 51.859375 C 86.800781 53.109375 90.632812 53.800781 94.46875 53.417969 C 98.070312 53.058594 101.46875 51.671875 104.488281 49.71875 C 106.488281 48.425781 108.296875 46.921875 109.976562 45.277344 C 113.816406 41.511719 116.960938 37.007812 120.066406 32.644531 C 124.394531 26.554688 128.96875 20.65625 134.894531 16.015625 C 140.273438 11.808594 146.566406 8.761719 153.359375 7.886719 C 153.921875 7.816406 154.492188 7.757812 155.058594 7.714844 C 158.988281 7.425781 163 7.914062 166.695312 9.3125 C 169.878906 10.515625 172.761719 12.308594 175.371094 14.476562 L 175.371094 16.09375 C 175.203125 16.105469 175.023438 16.050781 174.867188 15.914062 C 173.496094 14.734375 172.042969 13.660156 170.488281 12.730469 C 164.558594 9.175781 157.628906 8.351562 150.984375 9.742188 C 150.0625 9.933594 149.144531 10.171875 148.242188 10.449219 C 141.304688 12.5625 135.296875 16.9375 130.304688 22.097656 C 125.039062 27.542969 121.089844 34 116.488281 39.976562 C 115.128906 41.738281 113.6875 43.46875 112.140625 45.097656 C 108.769531 48.644531 104.890625 51.695312 100.28125 53.476562 C 85.601562 59.152344 72.132812 47.660156 60.371094 40.570312 C 54.042969 36.757812 47.203125 33.78125 39.667969 34.117188 C 36.519531 34.257812 33.429688 34.890625 30.457031 35.902344 C 26.085938 37.386719 21.96875 39.691406 18.300781 42.4375 C 13.0625 46.355469 8.578125 51.378906 5.535156 57.179688 C 2.011719 63.878906 0.773438 71.4375 1.78125 78.925781 C 1.789062 78.992188 1.792969 79.054688 1.785156 79.113281 L 0.382812 79.113281 C 0.136719 77.253906 -0.0078125 75.390625 0 73.515625 Z M 0 73.515625 " fill-opacity="1" fill-rule="nonzero"/></g></g></g></g></g></svg>