<svg xmlns="http://www.w3.org/2000/svg" xmlns:xlink="http://www.w3.org/1999/xlink" width="278" zoomAndPan="magnify" viewBox="0 0 208.5 422.999988" height="564" preserveAspectRatio="xMidYMid meet" version="1.0"><defs><filter x="0%" y="0%" width="100%" height="100%" id="513e627a6e"><feColorMatrix values="0 0 0 0 1 0 0 0 0 1 0 0 0 0 1 0 0 0 1 0" color-interpolation-filters="sRGB"/></filter><clipPath id="bb2dfff904"><path d="M 0 1.3125 L 207.960938 1.3125 L 207.960938 422 L 0 422 Z M 0 1.3125 " clip-rule="nonzero"/></clipPath><clipPath id="fe2d34b214"><path d="M 194.085938 421.621094 L 13.875 421.621094 C 6.230469 421.621094 0 415.390625 0 407.742188 L 0 15.1875 C 0 7.542969 6.230469 1.3125 13.875 1.3125 L 194.085938 1.3125 C 201.730469 1.3125 207.960938 7.542969 207.960938 15.1875 L 207.960938 407.742188 C 207.960938 415.390625 201.730469 421.621094 194.085938 421.621094 Z M 194.085938 421.621094 " clip-rule="nonzero"/></clipPath><clipPath id="20b9fbedb8"><path d="M 0 0.507812 L 208 0.507812 L 208 422.492188 L 0 422.492188 Z M 0 0.507812 " clip-rule="nonzero"/></clipPath><mask id="0218aba2b5"><g filter="url(#513e627a6e)"><rect x="-20.85" width="250.2" fill="#000000" y="-42.299999" height="507.599986" fill-opacity="0.22"/></g></mask><clipPath id="2fb75a6be9"><path d="M 1.921875 1 L 206.183594 1 L 206.183594 422.492188 L 1.921875 422.492188 Z M 1.921875 1 " clip-rule="nonzero"/></clipPath><clipPath id="2f2cdc20ab"><path d="M 19 49 L 206.183594 49 L 206.183594 422.492188 L 19 422.492188 Z M 19 49 " clip-rule="nonzero"/></clipPath><clipPath id="31ac171120"><path d="M 57 87 L 203 87 L 203 422.492188 L 57 422.492188 Z M 57 87 " clip-rule="nonzero"/></clipPath><clipPath id="34dd23230a"><path d="M 90 124 L 204 124 L 204 422.492188 L 90 422.492188 Z M 90 124 " clip-rule="nonzero"/></clipPath><clipPath id="df1f994865"><rect x="0" width="208" y="0" height="423"/></clipPath></defs><g clip-path="url(#bb2dfff904)"><g clip-path="url(#fe2d34b214)"><path fill="#ffffff" d="M 0 1.3125 L 207.960938 1.3125 L 207.960938 421.296875 L 0 421.296875 Z M 0 1.3125 " fill-opacity="1" fill-rule="nonzero"/></g></g><g clip-path="url(#20b9fbedb8)"><g mask="url(#0218aba2b5)"><g transform="matrix(1, 0, 0, 1, 0, 0.000000000000019873)"><g clip-path="url(#df1f994865)"><g clip-path="url(#2fb75a6be9)"><path fill="#1c06b0" d="M -16.351562 322.574219 C -20.992188 278.636719 -23.304688 235.410156 -20.539062 192.144531 C -18.890625 166.355469 -16.277344 140.523438 -12.132812 115.027344 C -6.542969 80.613281 12.746094 54.667969 42.183594 36.238281 C 68.410156 19.820312 97.304688 10.753906 127.546875 5.261719 C 147.445312 1.652344 167.476562 0.6875 187.609375 1.363281 C 192.4375 1.519531 197.300781 2.351562 202.019531 3.429688 C 205.410156 4.207031 206.914062 6.976562 206.152344 10.476562 C 205.464844 13.640625 203.082031 14.894531 200.046875 14.882812 C 198.226562 14.875 196.410156 14.542969 194.585938 14.386719 C 150.53125 10.679688 108.507812 18.675781 68.175781 36.355469 C 66.226562 37.210938 64.347656 38.234375 62.429688 39.164062 C 23.226562 58.199219 2.191406 89.578125 -2.980469 132.75 C -8.574219 179.476562 -10.289062 226.289062 -7.976562 273.210938 C -6.707031 299.027344 -3.539062 324.75 -1.933594 350.558594 C -1.082031 364.21875 -1.378906 377.984375 -1.832031 391.679688 C -2.136719 401.082031 -3.542969 410.457031 -4.609375 419.824219 C -4.84375 421.886719 -5.308594 424.132812 -6.382812 425.851562 C -8.75 429.640625 -14.144531 429.378906 -15.996094 425.3125 C -16.9375 423.238281 -17.21875 420.539062 -16.890625 418.253906 C -12.898438 390.339844 -13.234375 362.378906 -15.523438 334.371094 C -15.828125 330.71875 -15.984375 327.0625 -16.351562 322.574219 Z M -16.351562 322.574219 " fill-opacity="1" fill-rule="nonzero"/></g><g clip-path="url(#2f2cdc20ab)"><path fill="#cf8865" d="M 72.890625 75.386719 C 90.238281 62.878906 109.816406 58.285156 129.683594 54.765625 C 153.4375 50.558594 177.441406 49.117188 201.558594 49.457031 C 209.683594 49.570312 212.867188 51.226562 212.960938 55.496094 C 213.058594 59.863281 209.734375 61.78125 201.839844 61.785156 C 175.90625 61.808594 150.214844 63.921875 124.574219 68.28125 C 75 76.71875 49.855469 109.230469 37.414062 154.625 C 32.636719 172.054688 31.324219 190.117188 31.660156 208.082031 C 32.324219 243.707031 34.277344 279.308594 34.835938 314.933594 C 35.285156 343.257812 34.457031 371.601562 34.183594 399.9375 C 34.144531 403.898438 34.074219 407.863281 33.90625 411.820312 C 33.804688 414.246094 33.648438 416.703125 33.210938 419.089844 C 32.59375 422.453125 30.605469 424.683594 26.972656 424.511719 C 23.34375 424.339844 21.460938 421.910156 21.253906 418.53125 C 21.054688 415.199219 21.496094 411.832031 21.527344 408.484375 C 21.816406 375.875 23.226562 343.230469 22.046875 310.675781 C 20.683594 272.90625 18.246094 235.175781 19.484375 197.367188 C 20.277344 173.210938 23.40625 149.386719 33.484375 127.015625 C 42.53125 106.960938 55.058594 89.558594 72.890625 75.386719 Z M 72.890625 75.386719 " fill-opacity="1" fill-rule="nonzero"/></g><g clip-path="url(#31ac171120)"><path fill="#cfb6a9" d="M 70.546875 214.351562 C 70.550781 255.125 70.351562 295.039062 70.652344 334.949219 C 70.839844 359.917969 71.773438 384.878906 72.367188 409.84375 C 72.394531 411.0625 72.355469 412.28125 72.421875 413.5 C 72.636719 417.410156 72.203125 421.035156 67.492188 421.921875 C 63.914062 422.59375 60.667969 419.363281 59.960938 414.402344 C 59.621094 412.003906 59.789062 409.535156 59.765625 407.097656 C 59.640625 393.386719 59.601562 379.671875 59.390625 365.960938 C 58.734375 323.3125 57.832031 280.664062 57.398438 238.015625 C 57.199219 218.507812 58.515625 199.039062 62.929688 179.933594 C 67.21875 161.351562 74.632812 144.082031 85.195312 128.1875 C 94.8125 113.71875 107.734375 103.671875 124.382812 98.335938 C 145.433594 91.585938 167.09375 88.816406 189.0625 87.941406 C 191.757812 87.832031 194.550781 88.136719 197.179688 88.761719 C 200.453125 89.542969 202.5625 91.726562 202.171875 95.371094 C 201.769531 99.082031 199.210938 100.34375 195.789062 100.519531 C 186.378906 101.003906 176.851562 100.800781 167.578125 102.230469 C 154.386719 104.261719 141.230469 106.949219 128.332031 110.378906 C 114.238281 114.128906 103.597656 123.089844 95.566406 135.246094 C 82.75 154.660156 75.089844 175.945312 72.171875 198.976562 C 71.558594 203.804688 71.089844 208.652344 70.546875 214.351562 Z M 70.546875 214.351562 " fill-opacity="1" fill-rule="nonzero"/></g><g clip-path="url(#34dd23230a)"><path fill="#948078" d="M 103.480469 245.433594 C 103.742188 273.089844 104.082031 299.871094 104.238281 326.660156 C 104.277344 333.957031 103.558594 341.261719 103.523438 348.558594 C 103.414062 371.699219 103.488281 394.847656 103.4375 417.992188 C 103.417969 425.484375 101.773438 428.464844 97.785156 428.789062 C 93.351562 429.15625 90.796875 425.582031 90.867188 418.0625 C 91.113281 391.882812 91.824219 365.699219 91.8125 339.519531 C 91.808594 316.378906 91.058594 293.234375 90.679688 270.09375 C 90.226562 242.578125 93.285156 215.441406 99.289062 188.585938 C 103.894531 167.96875 115.574219 152.785156 133.757812 142.539062 C 147.304688 134.902344 161.179688 127.746094 176.714844 125.183594 C 183.234375 124.109375 190.03125 124.484375 196.695312 124.546875 C 200.714844 124.582031 203.894531 126.320312 203.882812 131.023438 C 203.867188 134.757812 201.023438 137.410156 196.210938 136.867188 C 174.121094 134.351562 155.9375 144.492188 137.921875 154.742188 C 124.363281 162.457031 114.992188 174.085938 112.105469 189.648438 C 108.722656 207.867188 106.320312 226.257812 103.480469 245.433594 Z M 103.480469 245.433594 " fill-opacity="1" fill-rule="nonzero"/></g></g></g></g></g></svg>